<svg width="75" height="67" viewBox="0 0 75 67" fill="none" xmlns="http://www.w3.org/2000/svg">
<path d="M0 0V67H75V0H0ZM40.8161 52.2528C40.8161 58.7734 36.5304 61.7501 30.2866 61.7501C24.6455 61.7501 21.3804 59.149 19.7063 55.9929L25.4491 52.8965C26.5554 54.6457 27.5598 56.1269 29.9866 56.1269C32.2955 56.1269 33.7688 55.3181 33.7688 52.1643V30.7626H40.8161V52.2528ZM57.4875 61.7501C50.9411 61.7501 46.7062 58.9696 44.6464 55.3181L50.3893 52.3581C51.8973 54.5571 53.8714 56.1867 57.3375 56.1867C60.2491 56.1867 62.1268 54.885 62.1268 53.076C62.1268 50.9224 60.217 50.1591 56.9866 48.8885L55.2295 48.2161C50.1402 46.2874 46.7759 43.8491 46.7759 38.7188C46.7759 33.9929 50.8098 30.4036 57.0884 30.4036C61.575 30.4036 64.7893 31.7939 67.1009 35.443L61.6098 38.5848C60.4045 36.6562 59.0973 35.8929 57.0723 35.8929C55.0152 35.8929 53.708 37.0606 53.708 38.5848C53.708 40.4704 55.0152 41.2313 58.0446 42.4134L59.8018 43.0858C65.7964 45.3734 69.1607 47.7231 69.1607 52.985C69.1607 58.6394 64.1705 61.7477 57.4902 61.7477L57.4875 61.7501Z" fill="white"/>
</svg>
