<svg width="668" height="668" viewBox="0 0 668 668" fill="none" xmlns="http://www.w3.org/2000/svg">
<path d="M467.333 334C467.333 407.637 407.637 467.333 334 467.333C260.362 467.333 200.667 407.637 200.667 334C200.667 260.362 260.362 200.667 334 200.667C407.637 200.667 467.333 260.362 467.333 334ZM467.333 334V384C467.333 430.023 504.643 467.333 550.667 467.333C596.69 467.333 634 430.023 634 384V334C634 168.315 499.687 34 334 34C168.315 34 34 168.315 34 334C34 499.687 168.315 634 334 634H467.333" stroke="white" stroke-width="66.6667" stroke-linecap="round" stroke-linejoin="round"/>
</svg>
