<svg width="75" height="67" viewBox="0 0 75 67" fill="none" xmlns="http://www.w3.org/2000/svg">
<path d="M37.5175 26.9024C38.8052 26.9025 40.0642 27.2826 41.1359 27.995C42.2076 28.7073 43.0441 29.7201 43.54 30.9057C44.0359 32.0913 44.1692 33.3967 43.923 34.6577C43.6768 35.9187 43.0621 37.0788 42.1563 37.9921C41.2506 38.9053 40.0943 39.5308 38.8329 39.7898C37.5716 40.0489 36.2616 39.9298 35.0679 39.4477C33.8743 38.9656 32.8502 38.142 32.1248 37.0805C31.3994 36.019 31.0049 34.7672 30.9912 33.4826C30.9866 32.623 31.1517 31.771 31.4772 30.9751C31.8027 30.1792 32.2822 29.4551 32.8882 28.8441C33.4942 28.233 34.2149 27.7471 35.0092 27.4139C35.8035 27.0808 36.6558 26.9069 37.5175 26.9024ZM21.3588 61.3353C23.5575 62.6583 28.3388 60.639 33.9228 55.4166C32.0564 53.3009 30.2976 51.0931 28.6529 48.8016C25.8379 48.4871 23.0419 48.0222 20.2769 47.409C18.497 54.8596 19.1601 59.9775 21.3588 61.3353ZM23.8367 41.351L22.8246 39.5754C22.43 40.5533 22.0921 41.553 21.8125 42.5695C22.7548 42.7784 23.8018 42.9525 24.8837 43.1266L23.8367 41.351ZM46.6612 38.705L49.4881 33.4826L46.6612 28.2602C45.6142 26.415 44.4974 24.7786 43.4853 23.1423C41.6007 23.0378 39.6114 23.0378 37.5175 23.0378C35.4235 23.0378 33.4342 23.0378 31.5496 23.0378C30.5375 24.6742 29.4207 26.3105 28.3737 28.1558L25.5468 33.4826L28.3737 38.705C29.4207 40.5502 30.5375 42.1866 31.5496 43.8229C33.4342 43.8229 35.4235 43.8229 37.5175 43.8229C39.6114 43.8229 41.6007 43.8229 43.4853 43.8229C44.4974 42.1866 45.6142 40.5502 46.6612 38.705ZM37.5175 15.3087C36.8544 16.0746 36.1564 16.8754 35.4584 17.8154H39.5765C38.8786 16.8754 38.1806 16.0746 37.5175 15.3087ZM37.5175 51.6565C38.1806 50.8906 38.8786 50.0898 39.5765 49.1498H35.4584C36.1564 50.0898 36.8544 50.8906 37.5175 51.6565ZM53.6412 5.62985C51.4774 4.30684 46.6612 6.32617 41.1121 11.5486C42.9785 13.6643 44.7373 15.8721 46.382 18.1636C49.1944 18.4321 51.9904 18.8505 54.758 19.417C56.5379 11.9663 55.8748 6.84841 53.6412 5.49059M51.1982 25.4749L52.2103 27.2505C52.6049 26.2726 52.9428 25.2729 53.2224 24.2564C52.2801 24.0475 51.2331 23.8734 50.1512 23.6993L51.1982 25.4749ZM56.2587 1.10378C61.389 4.02832 61.9474 11.7226 59.7487 20.7051C68.6133 23.3163 75 27.6683 75 33.5174C75 39.3665 68.6133 43.7185 59.7487 46.3297C61.9125 55.3122 61.3541 63.0065 56.2587 65.931C51.1633 68.8556 44.2182 65.5132 37.5175 59.1419C30.8167 65.5132 23.8716 68.8556 18.7413 65.931C13.611 63.0065 13.0875 55.4863 15.2513 46.3297C6.38669 43.7185 0 39.3665 0 33.5174C0 27.6683 6.38669 23.2815 15.2513 20.6703C13.0875 11.6878 13.6459 3.9935 18.7413 1.06896C23.8367 -1.85557 30.8167 1.48675 37.5175 7.85807C44.2182 1.48675 51.1633 -1.85557 56.2587 1.06896M55.2466 33.4826C56.4587 36.0456 57.5305 38.6722 58.4574 41.351C65.7864 39.1576 69.9046 36.0242 69.9046 33.4826C69.9046 30.941 65.6817 27.8076 58.4574 25.6142C57.5305 28.293 56.4587 30.9196 55.2466 33.4826ZM19.7883 33.4826C18.5762 30.9196 17.5044 28.293 16.5775 25.6142C9.24849 27.8076 5.13029 30.941 5.13029 33.4826C5.13029 36.0242 9.35319 39.1576 16.5775 41.351C17.5044 38.6722 18.5762 36.0456 19.7883 33.4826ZM51.1982 41.351L50.1512 43.1266C51.2331 43.1266 52.2801 42.7784 53.2224 42.5695C52.9428 41.553 52.6049 40.5533 52.2103 39.5754L51.1982 41.351ZM41.0074 55.4166C46.5565 60.639 51.4774 62.6583 53.5365 61.3353C55.5956 60.0123 56.4332 54.9988 54.6533 47.409C51.8857 47.9754 49.0897 48.3938 46.2773 48.6623C44.6365 51.0013 42.8776 53.2556 41.0074 55.4166ZM23.8367 25.6142L24.8837 23.8386C23.8018 23.8386 22.7548 24.1867 21.8125 24.3956C22.0921 25.4122 22.43 26.4119 22.8246 27.3898L23.8367 25.6142ZM34.0275 11.5486C28.3737 6.32617 23.5575 4.30684 21.3588 5.62985C19.1601 6.95286 18.497 11.9663 20.2769 19.5562C23.0445 18.9897 25.8405 18.5713 28.6529 18.3028C30.3277 15.9614 32.1216 13.7071 34.0275 11.5486Z" fill="white"/>
</svg>
