<svg width="60" height="68" viewBox="0 0 60 68" fill="none" xmlns="http://www.w3.org/2000/svg">
<path d="M60 0L54.3741 60.9368L29.9996 67.4998L5.62469 60.9368L0 0H60ZM48.6636 12.3906H29.9777H10.9608L11.8702 19.7492H29.9777H30.9948L29.9777 20.1726L12.532 27.4386L13.1106 34.6315L29.9777 34.6862L39.0179 34.7148L38.4392 44.3057L29.9775 46.688V46.6804L29.9082 46.6997L21.7363 44.6368L21.2405 38.6833H21.2134H13.6336H13.6069L14.599 50.1764L29.9778 54.7243V54.7161L30.0055 54.7243L45.3019 50.2593L47.2861 27.4386H29.9778H29.9351L29.9778 27.4201L47.9201 19.7492L48.6636 12.3906Z" fill="white"/>
</svg>
