<svg width="26" height="26" viewBox="0 0 26 26" fill="none" xmlns="http://www.w3.org/2000/svg">
<path fill-rule="evenodd" clip-rule="evenodd" d="M13.0004 0C20.1805 0 26.0008 5.96709 26.0008 13.3292C26.0008 19.2171 22.2801 24.2119 17.1176 25.976C16.4585 26.1073 16.2245 25.6911 16.2245 25.3362C16.2245 24.8967 16.2401 23.4615 16.2401 21.6779C16.2401 20.4351 15.8241 19.6239 15.3574 19.2105C18.2525 18.8803 21.2946 17.753 21.2946 12.6335C21.2946 11.1774 20.7902 9.98926 19.9556 9.05584C20.0908 8.71913 20.5367 7.36336 19.8282 5.5277C19.8282 5.5277 18.7388 5.17054 16.257 6.8944C15.2182 6.59929 14.1054 6.4508 13.0004 6.4456C11.8954 6.4508 10.7838 6.59929 9.74639 6.8944C7.26202 5.17054 6.16999 5.5277 6.16999 5.5277C5.46407 7.36336 5.90998 8.71913 6.04388 9.05584C5.21316 9.98926 4.70484 11.1774 4.70484 12.6335C4.70484 17.74 7.74043 18.8846 10.6278 19.2213C10.256 19.5541 9.9193 20.1412 9.80229 21.0031C9.06127 21.3437 7.17881 21.9332 6.01918 19.8961C6.01918 19.8961 5.33146 18.6153 4.02622 18.5217C4.02622 18.5217 2.75868 18.5049 3.93782 19.3317C3.93782 19.3317 4.78934 19.7412 5.38086 21.2818C5.38086 21.2818 6.14399 23.6608 9.76069 22.8548C9.76719 23.9689 9.7789 25.0189 9.7789 25.3362C9.7789 25.6885 9.53968 26.1008 8.89096 25.9773C3.72461 24.2157 0 19.2184 0 13.3292C0 5.96709 5.82157 0 13.0004 0Z" fill="white"/>
</svg>
