<svg width="753" height="753" viewBox="0 0 753 753" fill="none" xmlns="http://www.w3.org/2000/svg">
<path d="M530.425 225.375C530.575 225.375 530.775 225.375 530.975 225.375C536.2 225.375 541.05 227 545.025 229.8L544.95 229.75C547.85 232.275 549.8 235.825 550.275 239.825V239.9C550.775 242.95 551.05 246.45 551.05 250.025C551.05 251.65 551 253.25 550.875 254.85V254.625C545.25 313.85 520.85 457.475 508.45 523.775C503.2 551.85 492.875 561.25 482.875 562.15C461.15 564.175 444.65 547.8 423.6 534C390.65 512.375 372.025 498.925 340.05 477.85C303.075 453.525 327.05 440.1 348.1 418.25C353.625 412.5 449.4 325.375 451.275 317.475C451.375 317 451.425 316.475 451.425 315.925C451.425 313.975 450.7 312.2 449.525 310.85C448.225 310 446.6 309.525 444.9 309.525C443.775 309.525 442.7 309.75 441.7 310.125L441.75 310.1C438.45 310.85 385.817 345.633 283.85 414.45C272.725 423.225 258.675 428.775 243.375 429.425H243.225C221.55 426.8 201.875 421.975 183.2 415.1L185.05 415.7C161.6 408.05 142.975 404.025 144.575 391.075C145.425 384.342 154.708 377.45 172.425 370.4C281.558 322.85 354.333 291.508 390.75 276.375C430.925 255.05 477.5 237.5 526.475 226.125L530.4 225.35L530.425 225.375ZM375.625 0C168.075 0.5 0 168.875 0 376.5C0 584.425 168.55 753 376.5 753C584.45 753 753 584.45 753 376.5C753 168.875 584.925 0.5 377.425 0H377.375C376.792 0 376.208 0 375.625 0Z" fill="white"/>
</svg>
